<svg id="Capa_1" enable-background="new 0 0 512 512" height="512" viewBox="0 0 512 512" width="512" xmlns="http://www.w3.org/2000/svg"><g fill="rgb(0,0,0)"><path d="m273 272v-49h-34v49c0 8.284-6.716 15-15 15h-49v34h49c8.284 0 15 6.716 15 15v49h34v-49c0-8.284 6.716-15 15-15h49v-34h-49c-8.284 0-15-6.716-15-15z"/><path d="m65 129h-20c-24.813 0-45 20.187-45 45v260c0 24.813 20.187 45 45 45h20z"/><path d="m467 129h-20v350h20c24.813 0 45-20.187 45-45v-260c0-24.813-20.187-45-45-45z"/><path d="m95 479h322v-350h-50v-51c0-24.813-20.187-45-45-45h-132c-24.813 0-45 20.187-45 45v51h-50zm80-401c0-8.271 6.729-15 15-15h132c8.271 0 15 6.729 15 15v51h-162zm-15 179h49v-49c0-8.284 6.716-15 15-15h64c8.284 0 15 6.716 15 15v49h49c8.284 0 15 6.716 15 15v64c0 8.284-6.716 15-15 15h-49v49c0 8.284-6.716 15-15 15h-64c-8.284 0-15-6.716-15-15v-49h-49c-8.284 0-15-6.716-15-15v-64c0-8.284 6.716-15 15-15z"/></g></svg>