<?xml version="1.0" encoding="iso-8859-1"?>
<!-- Generator: Adobe Illustrator 19.0.0, SVG Export Plug-In . SVG Version: 6.00 Build 0)  -->
<svg version="1.1" id="Capa_1" xmlns="http://www.w3.org/2000/svg" xmlns:xlink="http://www.w3.org/1999/xlink" x="0px" y="0px"
	 viewBox="0 0 512 512" style="enable-background:new 0 0 512 512;" xml:space="preserve">
<g>
	<g>
		<path d="M445.005,97.763l-21.01,21.581c37.329,36.341,57.887,84.943,57.887,136.854c0,51.715-20.425,100.187-57.513,136.488
			l21.067,21.523C488.36,372.196,512,316.079,512,256.198C512,196.089,488.208,139.823,445.005,97.763z"/>
	</g>
</g>
<g>
	<g>
		<path d="M399.508,137.589l-20.359,22.196c27.006,24.77,42.496,59.912,42.496,96.414c0,36.309-15.354,71.323-42.125,96.066
			l20.443,22.118c32.919-30.426,51.8-73.503,51.8-118.183C451.763,211.28,432.717,168.049,399.508,137.589z"/>
	</g>
</g>
<g>
	<g>
		<path d="M353.255,177.244l-18.706,23.605c17.07,13.528,26.86,33.701,26.86,55.348c0,21.466-9.655,41.533-26.489,55.056
			l18.861,23.481c23.987-19.27,37.746-47.895,37.746-78.537C391.527,225.296,377.578,196.519,353.255,177.244z"/>
	</g>
</g>
<g>
	<g>
		<rect y="170.63" width="94.33" height="169.285"/>
	</g>
</g>
<g>
	<g>
		<polygon points="296.407,53.974 124.45,158.867 124.45,351.841 296.576,458.026 		"/>
	</g>
</g>
<g>
</g>
<g>
</g>
<g>
</g>
<g>
</g>
<g>
</g>
<g>
</g>
<g>
</g>
<g>
</g>
<g>
</g>
<g>
</g>
<g>
</g>
<g>
</g>
<g>
</g>
<g>
</g>
<g>
</g>
</svg>
