<?xml version="1.0" encoding="iso-8859-1"?>
<!-- Generator: Adobe Illustrator 19.0.0, SVG Export Plug-In . SVG Version: 6.00 Build 0)  -->
<svg version="1.1" id="Capa_1" xmlns="http://www.w3.org/2000/svg" xmlns:xlink="http://www.w3.org/1999/xlink" x="0px" y="0px"
	 viewBox="0 0 512.001 512.001" style="enable-background:new 0 0 512.001 512.001;" xml:space="preserve">
<g>
	<g>
		<path d="M512,495.791c0-89.849-73.098-162.947-162.947-162.947h-78.064v177.935h241.012L512,495.791L512,495.791z
			 M337.058,436.799h-29.977v-29.975h29.977V436.799z"/>
	</g>
</g>
<g>
	<g>
		<path d="M162.948,332.844C73.098,332.844,0,405.942,0,495.791v14.988h241.012V332.844H162.948z M204.919,436.799h-29.977v-29.975
			h29.977V436.799z"/>
	</g>
</g>
<g>
	<g>
		<path d="M343.198,72.163H168.801c-31.221,25.857-49.506,64.271-49.506,105.278c0,75.379,61.326,136.705,136.705,136.705
			s136.705-61.326,136.705-136.705C392.705,136.435,374.419,98.019,343.198,72.163z"/>
	</g>
</g>
<g>
	<g>
		<rect x="173.206" y="1.222" width="165.582" height="40.966"/>
	</g>
</g>
<g>
</g>
<g>
</g>
<g>
</g>
<g>
</g>
<g>
</g>
<g>
</g>
<g>
</g>
<g>
</g>
<g>
</g>
<g>
</g>
<g>
</g>
<g>
</g>
<g>
</g>
<g>
</g>
<g>
</g>
</svg>
