<svg height="512" viewBox="0 0 512 512" width="512" xmlns="http://www.w3.org/2000/svg"><g id="solid"><path d="m444.839 352a64.107 64.107 0 0 0 19.161-45.666v-34.334h8a8 8 0 0 0 0-16h-8a24.03 24.03 0 0 0 -21.874-23.9 63.831 63.831 0 0 0 21.874-48.1v-18.124l-109.3 63.282a63.856 63.856 0 0 0 63.862 16.082 23.843 23.843 0 0 0 -2.562 10.76v8a8 8 0 0 0 16 0v-8a8 8 0 0 1 16 0v48h-112v2.334a64.107 64.107 0 0 0 19.161 45.666z"/><path d="m344 392a8 8 0 0 1 8-8h96a8 8 0 0 1 8 8v56h16v-80h-144v80h16z"/><path d="m360 400h80v48h-80z"/><path d="m192 184v16h32v-16a16 16 0 0 0 -32 0z"/><path d="m453.04 100.221-117.04 67.76v13.512l122.673-71.021a63.918 63.918 0 0 0 -5.633-10.251z"/><path d="m344.829 216.381 119.171-68.994v-11.387a64.241 64.241 0 0 0 -.734-9.7l-125.485 72.65a63.588 63.588 0 0 0 7.048 17.431z"/><path d="m200 66v-18h-16v16a8 8 0 0 1 -8 8h-48v16h50a22.025 22.025 0 0 0 22-22z"/><path d="m400 72a64.072 64.072 0 0 0 -64 64v13.493l106.245-61.51a63.718 63.718 0 0 0 -42.245-15.983z"/><path d="m176 200v-16-32h-16v48z"/><path d="m32 48h16v368h-16z"/><path d="m96 48h16v368h-16z"/><path d="m64 48h16v368h-16z"/><path d="m128 216h120v16h-120z"/><path d="m32 464h448v16h-448z"/><path d="m192 352h48v16h-48z"/><path d="m79.6 448h160.85a116.981 116.981 0 0 0 35.971-72.2l2.645-23.8h-23.066v56a8 8 0 0 1 -8 8h-64a8 8 0 0 1 -8-8v-56h-48v72a8 8 0 0 1 -8 8h-54.556a117.31 117.31 0 0 0 14.156 16z"/><path d="m192 384h48v16h-48z"/></g></svg>