<?xml version="1.0" encoding="iso-8859-1"?>
<!-- Generator: Adobe Illustrator 19.0.0, SVG Export Plug-In . SVG Version: 6.00 Build 0)  -->
<svg version="1.1" id="Capa_1" xmlns="http://www.w3.org/2000/svg" xmlns:xlink="http://www.w3.org/1999/xlink" x="0px" y="0px"
	 viewBox="0 0 512 512" style="enable-background:new 0 0 512 512;" xml:space="preserve">
<g>
	<g>
		<path d="M330.954,242.048c-20.665-20.665-47.809-30.997-74.954-30.997s-54.289,10.333-74.954,30.997
			c-41.329,41.33-41.329,108.577,0,149.907c41.33,41.329,108.578,41.329,149.908,0C372.283,350.625,372.283,283.378,330.954,242.048
			z M311.121,372.123c-14.723,14.724-34.299,22.832-55.121,22.832c-20.822,0-40.398-8.108-55.121-22.832
			c-14.705-14.704-22.803-34.28-22.803-55.121s8.098-40.417,22.803-55.121c14.723-14.724,34.299-22.832,55.121-22.832
			s40.398,8.108,55.121,22.832c14.705,14.704,22.803,34.279,22.803,55.121C333.924,337.844,325.826,357.419,311.121,372.123z"/>
	</g>
</g>
<g>
	<g>
		<path d="M268.923,332.002v-30h32.613c-2.307-7.055-6.24-13.518-11.629-18.907c-9.057-9.058-21.1-14.045-33.908-14.045
			c-12.808,0-24.851,4.988-33.908,14.045c-9.038,9.038-14.016,21.08-14.016,33.908s4.978,24.87,14.016,33.908
			c9.058,9.056,21.1,14.044,33.909,14.044s24.851-4.988,33.908-14.045c5.39-5.39,9.322-11.852,11.629-18.908H268.923z"/>
	</g>
</g>
<g>
	<g>
		<path d="M30,150v362h452V150H30z M352.167,413.168c-25.687,25.687-59.84,39.833-96.167,39.833
			c-36.327,0-70.479-14.146-96.167-39.833S120,353.329,120,317.002c0-36.327,14.146-70.48,39.833-96.167
			c25.687-25.687,59.839-39.833,96.167-39.833s70.479,14.146,96.167,39.833S392,280.675,392,317.002
			C392,353.329,377.854,387.481,352.167,413.168z"/>
	</g>
</g>
<g>
	<g>
		<path d="M30,0v120h452V0H30z M125.537,76.906H92.609v-30h32.928V76.906z M291.681,76.906h-32.928v-30h32.928V76.906z
			 M357.536,76.906h-32.927v-30h32.927V76.906z M423.464,76.906h-32.928v-30h32.928V76.906z"/>
	</g>
</g>
<g>
</g>
<g>
</g>
<g>
</g>
<g>
</g>
<g>
</g>
<g>
</g>
<g>
</g>
<g>
</g>
<g>
</g>
<g>
</g>
<g>
</g>
<g>
</g>
<g>
</g>
<g>
</g>
<g>
</g>
</svg>
