<?xml version="1.0" encoding="iso-8859-1"?>
<!-- Generator: Adobe Illustrator 19.0.0, SVG Export Plug-In . SVG Version: 6.00 Build 0)  -->
<svg version="1.1" id="Capa_1" xmlns="http://www.w3.org/2000/svg" xmlns:xlink="http://www.w3.org/1999/xlink" x="0px" y="0px"
	 viewBox="0 0 512 512" style="enable-background:new 0 0 512 512;" xml:space="preserve">
<g>
	<g>
		<path d="M355.465,346.224V60.764c0-24.813-20.188-45.001-45.002-45.001c-24.814,0-45.002,20.188-45.002,45.001v20.002h30V60.764
			c0-8.271,6.729-15.001,15.002-15.001s15.002,6.729,15.002,15.001v105.45H206.536V60.764c0-24.813-20.188-45.001-45.002-45.001
			c-24.814,0-45.002,20.188-45.002,45.001v20.002h30V60.764c0-8.271,6.729-15.001,15.002-15.001s15.002,6.729,15.002,15.001v285.461
			H0v30h512v-30H355.465z M325.465,346.224H206.536v-30.003h118.929V346.224z M325.465,286.221H206.536v-30.004h118.929V286.221z
			 M325.465,226.217H206.536v-30.004h118.929V226.217z"/>
	</g>
</g>
<g>
	<g>
		<rect y="406.227" width="512" height="30"/>
	</g>
</g>
<g>
	<g>
		<rect y="466.237" width="512" height="30"/>
	</g>
</g>
<g>
</g>
<g>
</g>
<g>
</g>
<g>
</g>
<g>
</g>
<g>
</g>
<g>
</g>
<g>
</g>
<g>
</g>
<g>
</g>
<g>
</g>
<g>
</g>
<g>
</g>
<g>
</g>
<g>
</g>
</svg>
