<?xml version="1.0" encoding="iso-8859-1"?>
<!-- Generator: Adobe Illustrator 19.0.0, SVG Export Plug-In . SVG Version: 6.00 Build 0)  -->
<svg version="1.1" id="Capa_1" xmlns="http://www.w3.org/2000/svg" xmlns:xlink="http://www.w3.org/1999/xlink" x="0px" y="0px"
	 viewBox="0 0 512 512" style="enable-background:new 0 0 512 512;" xml:space="preserve">
<g>
	<g>
		<polygon points="0.78,220.772 0.78,230.766 8.034,220.772 		"/>
	</g>
</g>
<g>
	<g>
		<path d="M512,167.35h-46.659l-63.952-87.424h-51.458v-58.6H161.78v58.601h-51.493L46.82,167.351H0v29.983h25.052L0.78,230.766
			l0.034,259.782h118.95v-59.882h272.998v60.008h118.95V230.737l-24.436-33.404H512V167.35z M125.571,109.91h260.603l81.1,110.863
			H45.087L125.571,109.91z M30.763,310.679v-59.923h101.172l34.355,59.923H30.763z M334.94,370.898H176.771v-29.983H334.94V370.898z
			 M481.728,310.679H346.814l34.354-59.923h100.56V310.679z"/>
	</g>
</g>
<g>
</g>
<g>
</g>
<g>
</g>
<g>
</g>
<g>
</g>
<g>
</g>
<g>
</g>
<g>
</g>
<g>
</g>
<g>
</g>
<g>
</g>
<g>
</g>
<g>
</g>
<g>
</g>
<g>
</g>
</svg>
