<svg id="Capa_1" enable-background="new 0 0 512 512" height="512" viewBox="0 0 512 512" width="512" xmlns="http://www.w3.org/2000/svg"><g fill="rgb(0,0,0)"><path d="m256 95c-53.486 0-97 43.514-97 97v131h194v-131c0-53.486-43.514-97-97-97z"/><path d="m129 323v-131c0-70.028 56.972-127 127-127s127 56.972 127 127v131h64v-278c0-24.813-20.187-45-45-45h-292c-24.813 0-45 20.187-45 45v278z"/><path d="m466 353c-18.206 0-389.922 0-420 0-24.813 0-45 20.187-45 45v69c0 24.813 20.187 45 45 45h420c24.813 0 45-20.187 45-45v-69c0-24.813-20.187-45-45-45zm-314 94h-32c-8.284 0-15-6.716-15-15s6.716-15 15-15h32c8.284 0 15 6.716 15 15s-6.716 15-15 15zm240 0h-32c-8.284 0-15-6.716-15-15s6.716-15 15-15h32c8.284 0 15 6.716 15 15s-6.716 15-15 15z"/></g></svg>