<?xml version="1.0" encoding="iso-8859-1"?>
<!-- Generator: Adobe Illustrator 19.0.0, SVG Export Plug-In . SVG Version: 6.00 Build 0)  -->
<svg version="1.1" id="Capa_1" xmlns="http://www.w3.org/2000/svg" xmlns:xlink="http://www.w3.org/1999/xlink" x="0px" y="0px"
	 viewBox="0 0 512 512" style="enable-background:new 0 0 512 512;" xml:space="preserve">
<g>
	<g>
		<path d="M392,106.78v29.807h-85.707V106.78h-30v391.296h30v-34.513H392v34.513h30V106.78H392z M392,433.563h-85.707V404.42H392
			V433.563z M392,374.42h-85.707v-29.599H392V374.42z M392,314.821h-85.707v-29.545H392V314.821z M392,255.276h-85.707v-29.545H392
			V255.276z M392,195.731h-85.707v-29.144H392V195.731z"/>
	</g>
</g>
<g>
	<g>
		<polygon points="482,106.78 482,136.587 452,136.587 452,225.731 482,225.731 482,374.42 452,374.42 452,463.563 482,463.563 
			482,498.076 512,498.076 512,106.78 		"/>
	</g>
</g>
<g>
	<g>
		<polygon points="246.293,225.731 246.293,136.587 130.897,136.587 130.897,76.988 30,76.988 30,13.924 0,13.924 0,495.924 
			30,495.924 30,463.563 246.293,463.563 246.293,374.42 130.897,374.42 130.897,314.821 30,314.821 30,225.731 		"/>
	</g>
</g>
<g>
</g>
<g>
</g>
<g>
</g>
<g>
</g>
<g>
</g>
<g>
</g>
<g>
</g>
<g>
</g>
<g>
</g>
<g>
</g>
<g>
</g>
<g>
</g>
<g>
</g>
<g>
</g>
<g>
</g>
</svg>
