<?xml version="1.0" encoding="iso-8859-1"?>
<!-- Generator: Adobe Illustrator 19.0.0, SVG Export Plug-In . SVG Version: 6.00 Build 0)  -->
<svg version="1.1" id="Capa_1" xmlns="http://www.w3.org/2000/svg" xmlns:xlink="http://www.w3.org/1999/xlink" x="0px" y="0px"
	 viewBox="0 0 512 512" style="enable-background:new 0 0 512 512;" xml:space="preserve">
<g>
	<g>
		<path d="M271,168.997v31.031c18.017,6.235,30.996,23.361,30.996,43.471c0,1.477-0.077,2.937-0.214,4.379l27.123,17.031
			c1.999-6.795,3.091-13.976,3.091-21.409C331.996,206.729,305.744,175.981,271,168.997z"/>
	</g>
</g>
<g>
	<g>
		<path d="M180.003,243.499c0,7.378,1.077,14.506,3.047,21.257l27.154-17.05c-0.126-1.386-0.201-2.788-0.201-4.207
			c0-20.111,12.979-37.236,30.996-43.471v-31.031C206.255,175.981,180.003,206.729,180.003,243.499z"/>
	</g>
</g>
<g>
	<g>
		<path d="M289.13,275.357c-8.374,8.705-20.126,14.139-33.13,14.139c-13.06,0-24.857-5.48-33.238-14.251l-25.714,16.147
			c13.946,17.134,35.189,28.105,58.952,28.105c23.708,0,44.91-10.918,58.857-27.984L289.13,275.357z"/>
	</g>
</g>
<g>
	<g>
		<path d="M422,227.298V107.501H90v271.996h332V257.298h-30.002v-30H422z M256,349.495c-58.446,0-105.996-47.55-105.996-105.996
			c0-58.446,47.55-105.996,105.996-105.996s105.996,47.55,105.996,105.996C361.996,301.945,314.446,349.495,256,349.495z"/>
	</g>
</g>
<g>
	<g>
		<path d="M256,227.503c-8.82,0-15.996,7.176-15.996,15.996s7.176,15.996,15.996,15.996s15.996-7.176,15.996-15.996
			S264.82,227.503,256,227.503z"/>
	</g>
</g>
<g>
	<g>
		<path d="M0,17.501v451.996h30.002v25.002h30v-25.002h391.567v25.002h30v-25.002H512V17.501H0z M480,257.298h-28v152.199H60V77.501
			h392v149.797h28V257.298z"/>
	</g>
</g>
<g>
</g>
<g>
</g>
<g>
</g>
<g>
</g>
<g>
</g>
<g>
</g>
<g>
</g>
<g>
</g>
<g>
</g>
<g>
</g>
<g>
</g>
<g>
</g>
<g>
</g>
<g>
</g>
<g>
</g>
</svg>
