<svg id="Layer_3" enable-background="new 0 0 64 64" height="512" viewBox="0 0 64 64" width="512" xmlns="http://www.w3.org/2000/svg"><g><path d="m57.382 29h-6.382v8h2.382z"/><path d="m45 29h4v8h-4z"/><path d="m10.617 37h2.383v-8h-6.383z"/><path d="m32 48.999c5.583 0 11.121-1.388 16.052-4h-32.105c4.931 2.612 10.469 4 16.053 4z"/><path d="m39 29h4v8h-4z"/><path d="m21 29h4v8h-4z"/><path d="m11 41.999c0 .552.448 1 1 1h40c.552 0 1-.448 1-1v-2.999h-21-21z"/><path d="m32.999 29h4.001v8h-4.001z"/><path d="m26.999 29h4v8h-4z"/><path d="m15 29h4v8h-4z"/><path d="m5 9h52v2h-52z"/><path d="m37 19h-10c-.552 0-1 .448-1 1 0 .551.448 1 1 1h10c.551 0 .999-.448.999-.999 0-.553-.448-1.001-.999-1.001z"/><path d="m55 18c-1.103 0-2 .897-2 2s.897 2 2 2 2-.897 2-2c-.001-1.104-.898-2-2-2z"/><path d="m60 2.999h-56c-.551 0-1 .449-1 1v2c0 .551.449 1 1 1h56c.551 0 1-.449 1-1v-2c0-.551-.449-1-1-1z"/><path d="m60 12.999h-56c-.551 0-1 .449-1 1v12c0 .551.449 1 1 1h56c.551 0 1-.449 1-1v-12c0-.551-.449-1-1-1zm-51 11c-2.206 0-4-1.794-4-4s1.794-4 4-4 4 1.794 4 4-1.794 4-4 4zm28-1h-10c-1.654 0-3-1.345-3-2.999 0-1.655 1.346-3 3-3h10c1.654 0 2.999 1.346 2.999 3 0 1.653-1.345 2.999-2.999 2.999zm18 1c-2.206 0-4-1.794-4-4s1.794-4 4-4 4 1.794 4 4c-.001 2.206-1.795 4-4 4z"/><path d="m9 18c-1.103 0-2 .897-2 2s.897 2 2 2 2-.897 2-2c0-1.104-.897-2-2-2z"/><path d="m31 54h2v9h-2z"/><path d="m4.343 52.999h11.314v2h-11.314z" transform="matrix(.707 -.707 .707 .707 -35.254 22.887)"/><path d="m52.999 48.342h2v11.314h-2z" transform="matrix(.707 -.707 .707 .707 -22.367 54)"/></g></svg>