<svg id="Layer_1" enable-background="new 0 0 512 512" height="512" viewBox="0 0 512 512" width="512" xmlns="http://www.w3.org/2000/svg"><path d="m81.6 512h176.53v-512h-176.53zm145.07-156.27c0 8.84-7.17 16-16 16-8.84 0-16-7.16-16-16v-81.6c0-8.83 7.16-16 16-16 8.83 0 16 7.17 16 16zm-113.6-281.06c0-8.84 7.16-16 16-16h81.6c8.83 0 16 7.16 16 16v126.93c0 8.84-7.17 16-16 16h-81.6c-8.84 0-16-7.16-16-16z"/><path d="m290.13 0v512h140.27v-512zm63.47 355.73c0 8.84-7.16 16-16 16s-16-7.16-16-16v-199.46c0-8.84 7.16-16 16-16s16 7.16 16 16z"/><path d="m145.07 90.67h49.6v94.93h-49.6z"/></svg>