<?xml version="1.0" encoding="iso-8859-1"?>
<!-- Generator: Adobe Illustrator 19.0.0, SVG Export Plug-In . SVG Version: 6.00 Build 0)  -->
<svg version="1.1" id="Capa_1" xmlns="http://www.w3.org/2000/svg" xmlns:xlink="http://www.w3.org/1999/xlink" x="0px" y="0px"
	 viewBox="0 0 512 512" style="enable-background:new 0 0 512 512;" xml:space="preserve">
<g>
	<g>
		<path d="M376.067,135.08v-21.769C376.067,50.831,325.236,0,262.756,0h-13.511c-62.48,0-113.312,50.831-113.312,113.312V512
			h240.135V210.126H165.949v-96.815c0-45.929,37.367-83.296,83.296-83.296h13.511c45.929,0,83.296,37.367,83.296,83.296v21.769
			H376.067z M213.549,349.478c11.339-11.339,26.414-17.583,42.451-17.583c16.037,0,31.113,6.244,42.452,17.583
			c11.339,11.339,17.583,26.414,17.583,42.451c0,16.037-6.244,31.113-17.583,42.452c-11.339,11.339-26.414,17.583-42.452,17.583
			c-16.036,0-31.112-6.244-42.451-17.583c-11.34-11.34-17.584-26.416-17.584-42.452
			C195.965,375.894,202.209,360.817,213.549,349.478z"/>
	</g>
</g>
<g>
	<g>
		<path d="M284.999,384.154l-36.775,36.775c2.505,0.667,5.113,1.02,7.775,1.02c8.019,0,15.557-3.123,21.227-8.792
			c5.669-5.67,8.792-13.208,8.792-21.227C286.019,389.266,285.668,386.66,284.999,384.154z"/>
	</g>
</g>
<g>
	<g>
		<path d="M256,361.91c-8.018,0-15.556,3.123-21.226,8.792c-5.67,5.67-8.793,13.208-8.793,21.226c0,2.662,0.352,5.27,1.02,7.776
			l36.775-36.775C261.27,362.262,258.662,361.91,256,361.91z"/>
	</g>
</g>
<g>
</g>
<g>
</g>
<g>
</g>
<g>
</g>
<g>
</g>
<g>
</g>
<g>
</g>
<g>
</g>
<g>
</g>
<g>
</g>
<g>
</g>
<g>
</g>
<g>
</g>
<g>
</g>
<g>
</g>
</svg>
