<?xml version="1.0" encoding="iso-8859-1"?>
<!-- Generator: Adobe Illustrator 19.0.0, SVG Export Plug-In . SVG Version: 6.00 Build 0)  -->
<svg version="1.1" id="Capa_1" xmlns="http://www.w3.org/2000/svg" xmlns:xlink="http://www.w3.org/1999/xlink" x="0px" y="0px"
	 viewBox="0 0 512 512" style="enable-background:new 0 0 512 512;" xml:space="preserve">
<g>
	<g>
		<path d="M241.001,0v36.474c4.855-0.957,9.868-1.471,15-1.471c5.132,0,10.144,0.514,15,1.471V0H241.001z"/>
	</g>
</g>
<g>
	<g>
		<path d="M256.001,189.912c-5.132,0-10.145-0.514-15-1.471v36.473H271v-36.473C266.145,189.398,261.132,189.912,256.001,189.912z"
			/>
	</g>
</g>
<g>
	<g>
		<path d="M331.914,97.062c1.008,4.978,1.542,10.125,1.542,15.396c-0.001,4.993-0.494,9.872-1.401,14.604h36.402V97.062H331.914z"/>
	</g>
</g>
<g>
	<g>
		<path d="M180.088,97.062h-36.543v29.999h36.402c-0.908-4.732-1.401-9.611-1.401-14.604
			C178.546,107.188,179.08,102.04,180.088,97.062z"/>
	</g>
</g>
<g>
	<g>
		<path d="M332.409,15.441l-32.943,32.943c8.337,5.674,15.507,12.934,21.089,21.337l33.067-33.067L332.409,15.441z"/>
	</g>
</g>
<g>
	<g>
		<path d="M191.927,155.923l-32.8,32.8l21.213,21.213l32.924-32.923C204.86,171.43,197.601,164.26,191.927,155.923z"/>
	</g>
</g>
<g>
	<g>
		<path d="M320.635,155.07c-5.567,8.415-12.724,15.687-21.05,21.376l32.719,32.718l21.213-21.213L320.635,155.07z"/>
	</g>
</g>
<g>
	<g>
		<path d="M180.298,14.733l-21.213,21.213l32.926,32.927c5.69-8.326,12.962-15.483,21.377-21.05L180.298,14.733z"/>
	</g>
</g>
<g>
	<g>
		<path d="M511.85,265.379H0.149v214.762h180.827L180.998,512l29.999-0.02l-0.021-31.84h30.037l0.02,31.859l29.999-0.02l-0.02-31.84
			h30.037l0.02,31.859l29.999-0.02l-0.02-31.84h180.8V265.379z M62.651,327.762h30.001v29.999H62.651V327.762z M30.149,450.14
			v-29.996h150.79l0.019,29.996H30.149z M210.957,450.14l-0.019-29.996h30.038l0.019,29.996H210.957z M270.995,450.14l-0.019-29.996
			h30.037l0.019,29.996H270.995z M481.851,450.14H331.032l-0.019-29.996h150.838V450.14z"/>
	</g>
</g>
<g>
	<g>
		<path d="M256.001,65.003c-26.167,0-47.455,21.289-47.455,47.455c0,26.166,21.288,47.455,47.455,47.455
			c26.167,0,47.455-21.289,47.455-47.455C303.456,86.291,282.167,65.003,256.001,65.003z"/>
	</g>
</g>
<g>
</g>
<g>
</g>
<g>
</g>
<g>
</g>
<g>
</g>
<g>
</g>
<g>
</g>
<g>
</g>
<g>
</g>
<g>
</g>
<g>
</g>
<g>
</g>
<g>
</g>
<g>
</g>
<g>
</g>
</svg>
