<?xml version="1.0" encoding="iso-8859-1"?>
<!-- Generator: Adobe Illustrator 19.0.0, SVG Export Plug-In . SVG Version: 6.00 Build 0)  -->
<svg version="1.1" id="Capa_1" xmlns="http://www.w3.org/2000/svg" xmlns:xlink="http://www.w3.org/1999/xlink" x="0px" y="0px"
	 viewBox="0 0 512.001 512.001" style="enable-background:new 0 0 512.001 512.001;" xml:space="preserve">
<g>
	<g>
		<path d="M125.65,117.809c-16.515,0-29.95,13.435-29.95,29.95c0,16.514,13.435,29.949,29.95,29.949s29.95-13.435,29.95-29.949
			C155.6,131.245,142.165,117.809,125.65,117.809z"/>
	</g>
</g>
<g>
	<g>
		<polygon points="421.851,46.325 421.851,249.192 511.699,295.517 511.699,0 		"/>
	</g>
</g>
<g>
	<g>
		<path d="M97.289,16.987l-3.192,1.047C37.996,36.429,0.302,88.454,0.302,147.494v0.531c0,56.031,33.963,105.723,85.379,126.366
			l43.871,237.609h116.275l-33.294-187.196c16.327-6.364,30.161-18.065,39.108-33.491c6.018-10.377,9.498-21.731,10.335-33.43
			l129.929-16.289V53.925L97.289,16.987z M125.65,207.655c-33.028,0-59.897-26.87-59.897-59.896
			c0-33.028,26.87-59.897,59.897-59.897s59.897,26.87,59.897,59.897C185.548,180.786,158.678,207.655,125.65,207.655z
			 M225.735,276.286c-4.479,7.724-10.948,13.934-18.613,18.097l-5.154-28.978l29.316-3.676
			C230.256,266.795,228.398,271.695,225.735,276.286z"/>
	</g>
</g>
<g>
</g>
<g>
</g>
<g>
</g>
<g>
</g>
<g>
</g>
<g>
</g>
<g>
</g>
<g>
</g>
<g>
</g>
<g>
</g>
<g>
</g>
<g>
</g>
<g>
</g>
<g>
</g>
<g>
</g>
</svg>
