<?xml version="1.0" encoding="iso-8859-1"?>
<!-- Generator: Adobe Illustrator 19.0.0, SVG Export Plug-In . SVG Version: 6.00 Build 0)  -->
<svg version="1.1" id="Capa_1" xmlns="http://www.w3.org/2000/svg" xmlns:xlink="http://www.w3.org/1999/xlink" x="0px" y="0px"
	 viewBox="0 0 512 512" style="enable-background:new 0 0 512 512;" xml:space="preserve">
<g>
	<g>
		<polygon points="58.071,481.987 58.071,511.987 58.082,481.987 		"/>
	</g>
</g>
<g>
	<g>
		<rect x="325.063" y="150.873" width="90.005" height="29.998"/>
	</g>
</g>
<g>
	<g>
		<path d="M232.067,30.015v451.972H512V30.015H232.067z M325.066,391.381h-29.998v-30h29.998V391.381z M325.066,331.38h-29.998v-30
			h29.998V331.38z M325.066,271.379h-29.998V241.38h29.998V271.379z M385.067,391.381h-29.998v-30h29.998V391.381z M385.067,331.38
			h-29.998v-30h29.998V331.38z M385.067,271.379h-29.998V241.38h29.998V271.379z M445.068,391.381h-29.998v-30h29.998V391.381z
			 M445.068,331.38h-29.998v-30h29.998V331.38z M445.068,271.379h-29.998V241.38h29.998V271.379z M445.068,210.872h-150v-89.999h150
			V210.872z"/>
	</g>
</g>
<g>
	<g>
		<polygon points="0.804,30.015 0,481.987 28.073,481.987 28.073,30.015 		"/>
	</g>
</g>
<g>
	<g>
		<polygon points="58.259,0.013 58.071,511.987 202.068,511.987 202.068,0.013 		"/>
	</g>
</g>
<g>
</g>
<g>
</g>
<g>
</g>
<g>
</g>
<g>
</g>
<g>
</g>
<g>
</g>
<g>
</g>
<g>
</g>
<g>
</g>
<g>
</g>
<g>
</g>
<g>
</g>
<g>
</g>
<g>
</g>
</svg>
