<svg id="Capa_1" enable-background="new 0 0 512.652 512.652" height="512" viewBox="0 0 512.652 512.652" width="512" xmlns="http://www.w3.org/2000/svg"><g fill="rgb(0,0,0)"><path d="m289.564 321.271c18.368-18.366 18.37-48.099 0-66.467-18.369-18.369-48.099-18.37-66.468 0-18.368 18.366-18.37 48.099 0 66.467 18.369 18.369 48.099 18.37 66.468 0z"/><path d="m185.478 218.185c39.068-39.068 102.636-39.068 141.704 0 2.929 2.929 6.768 4.394 10.606 4.394 13.243 0 20.084-16.13 10.606-25.606-50.765-50.766-133.365-50.766-184.13 0-5.858 5.857-5.858 15.355 0 21.213 5.858 5.857 15.356 5.857 21.214-.001z"/><path d="m402.701 142.667c-80.709-80.709-212.033-80.709-292.742 0-5.858 5.857-5.858 15.355 0 21.213 5.857 5.859 15.354 5.857 21.213 0 69.013-69.012 181.304-69.012 250.316 0 5.858 5.859 15.355 5.858 21.213 0s5.858-15.356 0-21.213z"/><path d="m101.825 399.077c8.284 0 15-6.716 15-15s-6.716-15-15-15h-45.863c-8.284 0-15 6.716-15 15v113.158c0 8.284 6.716 15 15 15s15-6.716 15-15v-42.65h27.22c8.284 0 15-6.716 15-15s-6.716-15-15-15h-27.22v-25.508z"/><path d="m244.709 413.285c0-24.606-20.771-44.625-46.302-44.625h-30.292c-8.474 0-15.037 6.855-15.037 15v113.992c0 8.284 6.716 15 15 15s15-6.716 15-15v-30.278l35.371 40.188c5.48 6.226 14.961 6.817 21.17 1.35 6.219-5.473 6.823-14.951 1.35-21.17l-28.199-32.04c18.519-5.84 31.939-22.643 31.939-42.417zm-46.302 14.626c-3.55 0-9.491.023-15.165.051-.073-14.562-.031-11.185-.082-29.302h15.247c8.836 0 16.302 6.697 16.302 14.625s-7.466 14.626-16.302 14.626z"/><path d="m343.69 399.179c8.284 0 15-6.716 15-15s-6.716-15-15-15h-47.593c-8.284 0-15 6.716-15 15v112.953c0 8.284 6.716 15 15 15h47.593c8.284 0 15-6.716 15-15s-6.716-15-15-15h-32.593v-26.477h29.084c8.284 0 15-6.716 15-15s-6.716-15-15-15h-29.084v-26.477h32.593z"/><path d="m456.69 482.132h-32.593v-26.477h29.084c8.284 0 15-6.716 15-15s-6.716-15-15-15h-29.084v-26.477h32.593c8.284 0 15-6.716 15-15s-6.716-15-15-15h-47.593c-8.284 0-15 6.716-15 15v112.953c0 8.284 6.716 15 15 15h47.593c8.284 0 15-6.716 15-15s-6.716-14.999-15-14.999z"/><path d="m74.603 106.311c101.903-101.902 261.55-101.902 363.453 0 2.929 2.929 6.768 4.394 10.606 4.394 13.243 0 20.084-16.13 10.606-25.606-113.419-113.422-292.37-113.509-405.878-.001-5.858 5.857-5.858 15.355 0 21.213s15.356 5.858 21.213 0z"/></g></svg>