<?xml version="1.0" encoding="iso-8859-1"?>
<!-- Generator: Adobe Illustrator 19.0.0, SVG Export Plug-In . SVG Version: 6.00 Build 0)  -->
<svg version="1.1" id="Capa_1" xmlns="http://www.w3.org/2000/svg" xmlns:xlink="http://www.w3.org/1999/xlink" x="0px" y="0px"
	 viewBox="0 0 512 512" style="enable-background:new 0 0 512 512;" xml:space="preserve">
<g>
	<g>
		<path d="M367.76,255.992c11.151,39.267,1.306,83.293-29.55,114.149c-22.665,22.666-52.438,33.998-82.21,33.998
			c-29.772,0-59.545-11.333-82.21-33.998c-21.959-21.959-34.053-51.155-34.053-82.21c0-10.957,1.512-21.681,4.426-31.939H0v210.021
			h512V255.992H367.76z"/>
	</g>
</g>
<g>
	<g>
		<path d="M350.5,105.992V45.986h-189v60.006H0v120h157.563c4.585-7.255,10.01-14.054,16.227-20.271
			c45.331-45.331,119.089-45.332,164.42,0c6.264,6.264,11.657,13.072,16.19,20.271H512v-120H350.5z M320.5,105.992h-129V75.986h129
			V105.992z"/>
	</g>
</g>
<g>
	<g>
		<path d="M316.997,226.933C300.18,210.117,278.09,201.708,256,201.708c-22.09,0-44.18,8.408-60.997,25.225
			c-16.293,16.293-25.266,37.956-25.266,60.997c0,23.041,8.973,44.704,25.266,60.998c33.634,33.634,88.36,33.634,121.994,0
			C350.631,315.294,350.631,260.568,316.997,226.933z M307.337,302.931H271v36.337h-30v-36.337h-36.337v-30H241v-36.929h30v36.929
			h36.337V302.931z"/>
	</g>
</g>
<g>
</g>
<g>
</g>
<g>
</g>
<g>
</g>
<g>
</g>
<g>
</g>
<g>
</g>
<g>
</g>
<g>
</g>
<g>
</g>
<g>
</g>
<g>
</g>
<g>
</g>
<g>
</g>
<g>
</g>
</svg>
