<svg id="Capa_1" enable-background="new 0 0 512 512" height="512" viewBox="0 0 512 512" width="512" xmlns="http://www.w3.org/2000/svg"><g><path d="m166 61h-30v44.033c22.976-9.102 48.809-13.975 75-13.975s52.024 4.872 75 13.975v-44.033h-30v-31h101.455l56.836 28.418 13.418-26.836-63.164-31.582h-243.545v30h45z"/><path d="m211 241c-41.367 0-75 33.647-75 75s33.633 75 75 75 75-33.647 75-75-33.633-75-75-75zm45 90h-30v30h-30v-30h-30v-30h30v-30h30v30h30z"/><path d="m276.684 133.51c-40.547-16.611-90.82-16.611-131.367 0-61.26 25.078-99.317 83.511-99.317 152.49 0 90.806 29.209 209.667 30.439 214.633l2.842 11.367h263.438l2.842-11.367c1.23-4.966 30.439-123.827 30.439-214.633 0-68.979-38.057-127.412-99.316-152.49zm-65.684 287.49c-57.891 0-105-47.109-105-105s47.109-105 105-105 105 47.109 105 105-47.109 105-105 105z"/><path d="m433.334 97.475-12.334-17.871-12.334 17.871c-9.814 14.223-32.666 49.35-32.666 68.525 0 24.814 20.186 45 45 45s45-20.186 45-45c0-19.175-22.852-54.302-32.666-68.525z"/></g></svg>