<?xml version="1.0" encoding="iso-8859-1"?>
<!-- Generator: Adobe Illustrator 19.0.0, SVG Export Plug-In . SVG Version: 6.00 Build 0)  -->
<svg version="1.1" id="Capa_1" xmlns="http://www.w3.org/2000/svg" xmlns:xlink="http://www.w3.org/1999/xlink" x="0px" y="0px"
	 viewBox="0 0 512.001 512.001" style="enable-background:new 0 0 512.001 512.001;" xml:space="preserve">
<g>
	<g>
		<path d="M323.257,0.156v130.961h-29.991V0.156h-29.991v130.961h-29.991V0.156h-29.991v130.961v14.995v18.445
			c0,17.898,6.97,34.724,19.626,47.38l10.365,10.366v289.698h89.973V222.302l10.366-10.366
			c12.655-12.656,19.625-29.482,19.625-47.38v-18.445v-14.995V0.156H323.257z"/>
	</g>
</g>
<g>
	<g>
		<path d="M510.977,268.668L486.67,37.755c-2.256-21.435-20.211-37.6-41.764-37.6h-50.671V512h89.973V312.285
			c6.146-2.351,11.726-6.137,16.216-11.123C508.375,292.33,512.221,280.487,510.977,268.668z"/>
	</g>
</g>
<g>
	<g>
		<path d="M166.263,106.51c-6.562-24.78-18.438-50.712-32.584-71.141C122.507,19.233,105.443,0,87.59,0
			C69.526,0,51.897,19.51,40.288,35.876C25.352,56.936,13.035,83.4,6.499,108.482c-6.811,26.136-7.527,49.985-2.125,70.883
			c5.898,22.825,18.741,40.984,38.23,54.093v278.541h89.973V233.334c18.807-13.099,31.467-31.905,36.826-54.87
			C174.349,157.266,173.293,133.058,166.263,106.51z"/>
	</g>
</g>
<g>
</g>
<g>
</g>
<g>
</g>
<g>
</g>
<g>
</g>
<g>
</g>
<g>
</g>
<g>
</g>
<g>
</g>
<g>
</g>
<g>
</g>
<g>
</g>
<g>
</g>
<g>
</g>
<g>
</g>
</svg>
