<?xml version="1.0" encoding="iso-8859-1"?>
<!-- Generator: Adobe Illustrator 19.0.0, SVG Export Plug-In . SVG Version: 6.00 Build 0)  -->
<svg version="1.1" id="Capa_1" xmlns="http://www.w3.org/2000/svg" xmlns:xlink="http://www.w3.org/1999/xlink" x="0px" y="0px"
	 viewBox="0 0 512.001 512.001" style="enable-background:new 0 0 512.001 512.001;" xml:space="preserve">
<g>
	<g>
		<path d="M322.062,0C217.19,0,132.175,85.015,132.175,189.887c0,11.376,1.027,22.508,2.947,33.332h3.279h53.305v15.04v32.451
			c14.93,16.911,23.456,38.566,23.975,61.446c0.017,0.737,0.05,1.471,0.05,2.211c0,2.594-0.114,5.161-0.317,7.704
			c0.128,1.702,0.228,3.409,0.267,5.126c30.348,20.563,66.96,32.578,106.38,32.578c104.871,0,189.887-85.015,189.887-189.887
			S426.933,0,322.062,0z M226.022,261.438v-86.551h47.216v-26.421h-47.03v-30.081h77.111v86.583h-47.216v26.389h47.457v30.081
			H226.022z M423.835,261.644h-30.081v-60.683h-60.162V118.13h30.081v52.75h30.081v-52.75h30.081V261.644z"/>
	</g>
</g>
<g>
	<g>
		<path d="M160.899,422.108H77.966v0c-42.962,0-77.914,34.952-77.914,77.914v11.978h238.76v-11.978
			C238.812,457.061,203.86,422.108,160.899,422.108z"/>
	</g>
</g>
<g>
	<g>
		<path d="M161.626,283.333v-30.034H77.238v30.036c-15.15,12.524-24.025,31.148-24.025,51.032c0,36.512,29.705,66.218,66.219,66.218
			c36.513,0,66.219-29.706,66.219-66.219C185.651,314.483,176.776,295.857,161.626,283.333z"/>
	</g>
</g>
<g>
</g>
<g>
</g>
<g>
</g>
<g>
</g>
<g>
</g>
<g>
</g>
<g>
</g>
<g>
</g>
<g>
</g>
<g>
</g>
<g>
</g>
<g>
</g>
<g>
</g>
<g>
</g>
<g>
</g>
</svg>
