<?xml version="1.0" encoding="iso-8859-1"?>
<!-- Generator: Adobe Illustrator 19.0.0, SVG Export Plug-In . SVG Version: 6.00 Build 0)  -->
<svg version="1.1" id="Capa_1" xmlns="http://www.w3.org/2000/svg" xmlns:xlink="http://www.w3.org/1999/xlink" x="0px" y="0px"
	 viewBox="0 0 511.999 511.999" style="enable-background:new 0 0 511.999 511.999;" xml:space="preserve">
<g>
	<g>
		<path d="M477.158,138.802l9.429-11.614c12.959-15.961,18.928-36.013,16.805-56.463c-2.123-20.45-12.082-38.848-28.042-51.806
			C459.388,5.962,439.337-0.007,418.887,2.117c-20.45,2.123-38.848,12.082-51.806,28.043l-9.429,11.614l48.272,39.192l-20.103,23.08
			C352.146,80.1,312.665,66.025,270.983,63.302V29.919h33.963V0h-97.621v29.919h33.739v33.382
			c-41.695,2.724-81.186,16.807-114.867,40.765l-20.121-23.101l48.272-39.192l-9.43-11.614
			C131.959,14.199,113.561,4.24,93.111,2.117C72.663-0.005,52.61,5.962,36.65,18.92C20.689,31.878,10.73,50.276,8.607,70.726
			c-2.122,20.449,3.845,40.501,16.804,56.462l9.43,11.614l47.994-38.967L103.012,123c-1.96,1.827-3.901,3.678-5.805,5.582
			c-42.423,42.422-65.784,98.823-65.784,158.816c0,55.085,19.711,107.134,55.773,148.123l-49.715,53.912l21.996,20.282l48.92-53.051
			c40.912,35.784,92.764,55.334,147.627,55.334c54.879,0,106.746-19.56,147.663-55.366l48.95,53.083l21.996-20.282l-49.749-53.949
			c36.042-40.983,55.74-93.018,55.74-148.086c0-59.992-23.362-116.394-65.782-158.816c-1.913-1.913-3.864-3.773-5.832-5.607
			l20.157-23.142L477.158,138.802z M420.784,287.399c0,44.009-17.139,85.385-48.258,116.506
			c-31.119,31.119-72.494,48.257-116.504,48.257s-85.385-17.139-116.505-48.258c-31.12-31.12-48.258-72.495-48.258-116.504
			c0-44.008,17.139-85.383,48.258-116.503s72.494-48.258,116.505-48.258c44.009,0,85.385,17.139,116.506,48.259
			C403.647,202.016,420.784,243.39,420.784,287.399z"/>
	</g>
</g>
<g>
	<g>
		<path d="M351.372,192.053c-25.47-25.469-59.333-39.495-95.35-39.495c-36.018,0-69.879,14.026-95.348,39.494
			c-25.469,25.469-39.495,59.332-39.495,95.348c0,36.017,14.026,69.879,39.494,95.348c25.469,25.468,59.331,39.494,95.349,39.494
			c36.018,0,69.879-14.025,95.348-39.493c25.468-25.469,39.494-59.331,39.494-95.349
			C390.864,251.382,376.839,217.52,351.372,192.053z M274.414,302.876h-96.362v-29.918h65.396v-87.523h30.975L274.414,302.876z"/>
	</g>
</g>
<g>
</g>
<g>
</g>
<g>
</g>
<g>
</g>
<g>
</g>
<g>
</g>
<g>
</g>
<g>
</g>
<g>
</g>
<g>
</g>
<g>
</g>
<g>
</g>
<g>
</g>
<g>
</g>
<g>
</g>
</svg>
