<?xml version="1.0" encoding="iso-8859-1"?>
<!-- Generator: Adobe Illustrator 19.0.0, SVG Export Plug-In . SVG Version: 6.00 Build 0)  -->
<svg version="1.1" id="Capa_1" xmlns="http://www.w3.org/2000/svg" xmlns:xlink="http://www.w3.org/1999/xlink" x="0px" y="0px"
	 viewBox="0 0 512 512" style="enable-background:new 0 0 512 512;" xml:space="preserve">
<g>
	<g>
		<path d="M193.733,0.362v77.676c-43.414,3.488-83.762,22.063-114.9,53.2c-31.138,31.138-49.712,71.486-53.201,114.9H0v30.025
			h75.063v55.046h30.025v-55.046h30.025v30.025h30.025v-30.025h30.025v55.046h30.025v-55.046h30.025v30.025h30.025v-30.025h31.022
			v55.046h30.025v-55.046h71.206v-30.025h-25.633c-3.488-43.413-22.061-83.762-53.2-114.9
			c-31.139-31.138-71.487-49.712-114.901-53.2V30.387h258.216v481.25H512V0.362H193.733z"/>
	</g>
</g>
<g>
	<g>
		<rect x="75.063" y="361.233" width="30.025" height="30.025"/>
	</g>
</g>
<g>
	<g>
		<rect x="75.063" y="421.283" width="30.025" height="60.05"/>
	</g>
</g>
<g>
	<g>
		<rect x="135.113" y="336.212" width="30.025" height="90.076"/>
	</g>
</g>
<g>
	<g>
		<rect x="135.113" y="456.312" width="30.025" height="55.046"/>
	</g>
</g>
<g>
	<g>
		<rect x="195.164" y="361.233" width="30.025" height="30.025"/>
	</g>
</g>
<g>
	<g>
		<rect x="195.164" y="421.283" width="30.025" height="60.05"/>
	</g>
</g>
<g>
	<g>
		<rect x="255.214" y="336.212" width="30.025" height="90.076"/>
	</g>
</g>
<g>
	<g>
		<rect x="255.214" y="456.312" width="30.025" height="55.046"/>
	</g>
</g>
<g>
	<g>
		<rect x="316.265" y="361.233" width="30.025" height="30.025"/>
	</g>
</g>
<g>
	<g>
		<rect x="316.265" y="421.283" width="30.025" height="60.05"/>
	</g>
</g>
<g>
</g>
<g>
</g>
<g>
</g>
<g>
</g>
<g>
</g>
<g>
</g>
<g>
</g>
<g>
</g>
<g>
</g>
<g>
</g>
<g>
</g>
<g>
</g>
<g>
</g>
<g>
</g>
<g>
</g>
</svg>
